<?xml version="1.0" encoding="UTF-8"?>
<svg id="_レイヤー_1" data-name="レイヤー_1" xmlns="http://www.w3.org/2000/svg" version="1.1" viewBox="0 0 1000 400">
  <!-- Generator: Adobe Illustrator 29.6.1, SVG Export Plug-In . SVG Version: 2.1.1 Build 9)  -->
  <defs>
    <style>
      .st0 {
        fill: none;
      }

      .st1 {
        fill: #8f601e;
      }

      .st2 {
        fill: #fff;
      }

      .st3 {
        fill: #804f21;
      }
    </style>
  </defs>
  <g id="_レイヤー_11" data-name="_レイヤー_1">
    <g>
      <g>
        <path d="M67.76,326.6v-.24c0-24.08,18.15-43.8,44.17-43.8,15.97,0,25.53,5.32,33.4,13.07l-11.86,13.67c-6.54-5.93-13.19-9.56-21.66-9.56-14.28,0-24.56,11.86-24.56,26.38v.24c0,14.52,10.04,26.62,24.56,26.62,9.68,0,15.61-3.87,22.26-9.92l11.86,11.98c-8.71,9.32-18.39,15.13-34.73,15.13-24.93,0-43.44-19.24-43.44-43.56h0Z"/>
        <path d="M234.38,303.86h19.48l14.52,43.44,14.64-43.44h19.12l-25.53,65.34h-16.7l-25.53-65.34Z"/>
        <path d="M388.65,280.38h18.39v88.33h-18.39v-88.33h0Z"/>
        <path d="M425.19,280.38h18.39v88.33h-18.39v-88.33Z"/>
        <path d="M461.25,280.38h19.36v16.34h-19.36v-16.34ZM461.73,303.86h18.39v64.86h-18.39v-64.86h0Z"/>
        <path d="M576.39,303.86h18.39v9.2c4.24-5.44,9.68-10.4,19-10.4,13.91,0,22.02,9.2,22.02,24.08v41.99h-18.39v-36.18c0-8.71-4.11-13.19-11.13-13.19s-11.5,4.48-11.5,13.19v36.18h-18.39v-64.86h0Z"/>
        <g>
          <path d="M692.42,284.01h34.97c9.56,0,17.3,2.79,22.02,7.5,3.51,3.51,5.44,7.98,5.44,13.31v.24c0,11.49-7.5,17.3-14.4,20.08,10.16,2.66,19.12,8.47,19.12,20.21v.24c0,14.16-12.1,23.11-30.37,23.11h-36.79v-84.7h0ZM726.67,323.1c12.71,0,21.78-6.17,21.78-17.42v-.24c0-9.32-7.62-15.61-21.18-15.61h-28.56v33.28h27.96ZM729.45,362.91c14.52,0,23.72-6.65,23.72-17.3v-.24c0-10.4-9.08-16.46-25.77-16.46h-28.68v34h30.73Z"/>
          <path d="M775.43,307h5.93v17.54c4.84-11.01,15.13-19,27.35-18.51v6.53h-.6c-14.28,0-26.74,10.77-26.74,30.85v25.29h-5.93v-61.71h-.01Z"/>
          <path d="M811.72,338.1v-.24c0-17.3,13.69-32.31,32.43-32.31s32.19,14.76,32.19,32.07v.24c0,17.3-13.69,32.31-32.43,32.31s-32.19-14.76-32.19-32.07ZM870.77,338.1v-.24c0-14.88-11.77-26.74-26.87-26.74s-26.61,11.98-26.61,26.5v.24c0,14.88,11.77,26.74,26.87,26.74s26.61-11.98,26.61-26.5Z"/>
          <path d="M885.65,360.97l3.51-4.72c6.78,5.2,14.28,8.11,22.14,8.11,8.35,0,14.88-4.6,14.88-11.74v-.24c0-7.26-7.74-9.92-16.34-12.34-10.04-2.9-21.18-5.93-21.18-16.94v-.24c0-9.92,8.35-17.06,20.33-17.06,7.38,0,15.73,2.66,21.9,6.78l-3.15,4.96c-5.69-3.75-12.46-6.17-19-6.17-8.47,0-14.04,4.6-14.04,10.77v.24c0,6.9,8.35,9.44,17.18,11.98,9.92,2.79,20.33,6.42,20.33,17.3v.24c0,11.01-9.44,18.03-21.3,18.03-8.96,0-18.76-3.63-25.29-8.95h.03Z"/>
        </g>
        <path d="M208.72,303.77v10.1c-2.78-5.1-9.84-11.23-21.42-11.23-17.84,0-32.31,13.67-32.31,33.7,0,17.95,11.93,33.82,32.31,33.82,8.92,0,17.37-3.71,21.42-11.11v9.82h18.39v-65.1h-18.39ZM206.58,345.22c-2.69,5.39-7.86,9.48-15.73,9.48-12.71,0-17.99-10.66-17.99-17.99v-.11c0-9.16,6.46-18.42,17.88-18.42,8.51,0,14,4.85,16.48,10.45,1.18,2.59,1.72,5.49,1.62,8.29-.22,2.91-.86,5.71-2.26,8.29h0Z"/>
        <path d="M356.34,303.77v10.1c-2.78-5.1-9.84-11.23-21.42-11.23-17.84,0-32.31,13.67-32.31,33.7,0,17.95,11.93,33.82,32.31,33.82,8.92,0,17.37-3.71,21.42-11.11v9.82h18.39v-65.1h-18.39,0ZM354.19,345.22c-2.69,5.39-7.86,9.48-15.73,9.48-12.71,0-17.99-10.66-17.99-17.99v-.11c0-9.16,6.46-18.42,17.88-18.42,8.51,0,14,4.85,16.48,10.45,1.18,2.59,1.72,5.49,1.62,8.29-.22,2.91-.86,5.71-2.26,8.29h0Z"/>
        <path d="M544.92,303.77v10.1c-2.78-5.1-9.84-11.23-21.42-11.23-17.84,0-32.31,13.67-32.31,33.7,0,17.95,11.93,33.82,32.31,33.82,8.92,0,17.37-3.71,21.42-11.11v9.82h18.39v-65.1h-18.39ZM542.78,345.22c-2.69,5.39-7.86,9.48-15.73,9.48-12.71,0-17.99-10.66-17.99-17.99v-.11c0-9.16,6.46-18.42,17.88-18.42,8.51,0,14,4.85,16.48,10.45,1.18,2.59,1.72,5.49,1.62,8.29-.22,2.91-.86,5.71-2.26,8.29h0Z"/>
        <g>
          <path d="M947.76,354.25c3.91,0,7.08,3.18,7.08,7.08s-3.18,7.08-7.08,7.08-7.08-3.18-7.08-7.08,3.18-7.08,7.08-7.08M947.76,352.5c-4.88,0-8.83,3.95-8.83,8.83s3.95,8.83,8.83,8.83,8.83-3.95,8.83-8.83-3.95-8.83-8.83-8.83h0Z"/>
          <path d="M943.62,361.37v-.03c0-2.4,1.86-4.42,4.39-4.42,1.6,0,2.59.59,3.38,1.46l-1.2,1.3c-.59-.62-1.22-1.05-2.19-1.05-1.41,0-2.43,1.22-2.43,2.69v.03c0,1.5,1.04,2.72,2.53,2.72.91,0,1.59-.43,2.19-1.06l1.17,1.15c-.83.93-1.81,1.58-3.46,1.58-2.51,0-4.37-1.97-4.37-4.37h-.01Z"/>
        </g>
      </g>
      <rect class="st0" x="67.76" y="280.38" width="864.48" height="89.78"/>
      <rect class="st0" y="247.71" width="1000" height="155.12"/>
    </g>
  </g>
  <g id="_レイヤー_2">
    <g>
      <g>
        <g>
          <g>
            <path class="st2" d="M577.59,169.92c.57-1.62,1.23-3.2,1.97-4.74-.74,1.54-1.4,3.13-1.97,4.74Z"/>
            <path class="st2" d="M581.18,162.09c.56-.97,1.15-1.93,1.77-2.87-.62.94-1.21,1.89-1.77,2.87Z"/>
            <path class="st2" d="M650.07,165.17c.74,1.54,1.4,3.13,1.97,4.74-.57-1.62-1.23-3.2-1.97-4.74Z"/>
            <path class="st2" d="M591.8,148.9c-.37.34-.73.68-1.09,1.02.36-.35.72-.69,1.09-1.02Z"/>
            <path class="st2" d="M593.18,147.67c-.38.33-.76.66-1.13,1,.37-.34.75-.67,1.13-1Z"/>
            <path class="st2" d="M589.57,151.06c.33-.33.65-.66.99-.98-.33.32-.66.65-.99.98Z"/>
            <path class="st2" d="M582.98,159.17c.3-.46.62-.91.93-1.36-.32.45-.63.9-.93,1.36Z"/>
            <path class="st2" d="M587.14,153.7c.34-.39.68-.77,1.03-1.16-.35.38-.69.77-1.03,1.16Z"/>
            <path class="st2" d="M588.34,152.35c.34-.37.69-.74,1.05-1.11-.35.36-.7.73-1.05,1.11Z"/>
            <path class="st2" d="M586.1,154.94c.34-.41.68-.82,1.02-1.23-.35.4-.69.81-1.02,1.23Z"/>
            <path class="st2" d="M583.99,157.71c.63-.88,1.28-1.75,1.96-2.59-.68.84-1.34,1.71-1.96,2.59Z"/>
            <path class="st2" d="M581.15,162.16c-.56.98-1.08,1.98-1.57,2.99.49-1.02,1.01-2.01,1.57-2.99Z"/>
            <path class="st2" d="M650.06,165.15c-.49-1.02-1.01-2.01-1.57-2.99.56.98,1.08,1.98,1.57,2.99Z"/>
            <path class="st2" d="M640.07,151.06c-.33-.33-.65-.66-.99-.98.33.32.66.65.99.98Z"/>
            <path class="st2" d="M638.92,149.92c-.36-.35-.72-.69-1.09-1.02.37.34.73.68,1.09,1.02Z"/>
            <path class="st2" d="M640.24,151.24c.35.36.7.73,1.05,1.11-.34-.37-.69-.74-1.05-1.11Z"/>
            <path class="st2" d="M597.02,75.48c-7.31,7.15-7.18,18.83-2.01,27.2,3.13,5.47,7.68,10.33,9.93,16.28,5.46,12.48-2.5,21.23-11.76,28.71,6.86-4.7,15.94-5.22,21.63-5.22s14.77.52,21.63,5.22c-9.26-7.48-17.22-16.23-11.76-28.71,2.25-5.95,6.8-10.81,9.93-16.28,5.17-8.37,5.3-20.05-2.01-27.2-.13-.18-.1-.35.13-.39-3.86-.51-9.07-1.56-17.93-1.56s-14.06,1.04-17.93,1.56c.23.03.26.21.13.39h.02Z"/>
            <path class="st2" d="M637.58,148.67c-.37-.34-.75-.67-1.13-1,.38.33.76.66,1.13,1Z"/>
            <path class="st2" d="M641.47,152.54c.35.38.69.77,1.03,1.16-.34-.39-.68-.77-1.03-1.16Z"/>
            <path class="st2" d="M646.68,159.23c.62.94,1.21,1.89,1.77,2.87-.56-.97-1.15-1.93-1.77-2.87Z"/>
            <path class="st2" d="M645.72,157.81c.32.45.63.9.93,1.36-.3-.46-.62-.91-.93-1.36Z"/>
            <path class="st2" d="M642.51,153.71c.35.4.69.81,1.02,1.23-.34-.41-.68-.82-1.02-1.23Z"/>
            <path class="st2" d="M643.68,155.12c.68.84,1.34,1.71,1.96,2.59-.63-.88-1.28-1.75-1.96-2.59Z"/>
          </g>
          <path d="M656.26,22.43c-2.43,1.01-4.29,3.66-4.09,6.34.06,1.07.49,2.17.28,3.23-.32,1.19-1.49,1.89-2.39,2.68-2.5,2.09-5.5,3.65-8.59,4.81-5.66,2.52-8.75.71-12.92-3.28-3.74-3.7-6.26-8.52-8.13-13.36-.42-1.21-1.24-2.38-1.25-3.58.07-1.15,1.42-1.98,2.16-2.9,1.91-2.04,2.48-4.85,1.64-7.45-1.3-4.07-3.83-6.39-8.16-6.39s-6.86,2.32-8.16,6.39c-.83,2.6-.26,5.41,1.64,7.45.73.92,2.08,1.75,2.16,2.9,0,1.21-.83,2.37-1.25,3.58-1.87,4.84-4.39,9.66-8.13,13.36-4.16,3.99-7.26,5.8-12.92,3.28-3.09-1.16-6.09-2.72-8.59-4.81-.9-.8-2.07-1.49-2.39-2.68-.21-1.06.22-2.15.28-3.23.2-2.68-1.66-5.33-4.09-6.34-5.96-2.66-11.75,5.08-7.62,10.1,1.31,1.9,4.1,2.19,4.98,4.43,1.5,5.53,2.57,11.3,4.15,16.79.48,1.73,1.08,3.45,1.51,5.2.72,2.3.8,4.86,3.16,6.18,2.47,1.06,4.4.19,6.92-.32,9.16-2.67,19.69-3.9,28.34-3.9s19.19,1.23,28.34,3.9c2.52.51,4.44,1.38,6.92.32,2.36-1.33,2.44-3.89,3.16-6.18.43-1.75,1.03-3.47,1.51-5.2,1.58-5.49,2.66-11.26,4.15-16.79.88-2.24,3.67-2.53,4.98-4.43,4.13-5.02-1.66-12.76-7.62-10.1h.02Z"/>
          <path class="st3" d="M649.86,65.92"/>
          <path d="M601.14,200.67c-5.09,3.98-11.6,4.5-17.37,2.1-9.23-4.44-9.26-17.07-8.01-25.89,1.97-11.44,8.72-21.75,17.42-29.21,9.26-7.48,17.22-16.23,11.76-28.71-2.25-5.95-6.8-10.81-9.93-16.28-5.17-8.37-5.3-20.05,2.01-27.2.13-.18.1-.35-.13-.39-5.4.68-11.98,1.94-17.2,3.98-10.4,3.52-18.37,11.29-25.31,19.5-10.45,12.82-12.81,29.69-19.66,44.36-10.44,20.78-28.91,41.92-16.28,65.81,2.38,4.77,4.09,10.75,1.27,15.66-4.58,4.77,2.2,4.7,5.29,5.02,2.46.17,5.47-1.94,7.87-1.11,2.41,2.23-3.84,6.13.43,7.15,2.53.81,4.92.83,7.47.49,2.47-.17,5.07-.57,7.37-1.68,1.22-.43,2.79-1.69,4.06-1.42,2.27,1.87-4.47,11.9-4.17,14.19l.02.04c.86,1.02,2.29.51,4.07.65,2.02,0,4.24.25,5.49-1.71,9.17-11.45,17.75-24.92,18.22-39.94.06-2.21,1.58-1.16,2.6-.14,9.04,7.88,22.84,1.04,30.78-5.4,2.06-1.91,3.94-2.4,5.62-2.4s3.56.49,5.62,2.4c7.94,6.44,21.75,13.28,30.78,5.4,1.02-1.02,2.54-2.07,2.6.14.47,15.02,9.05,28.49,18.22,39.94,1.25,1.96,3.46,1.71,5.49,1.71,1.78-.14,3.21.38,4.07-.65l.02-.04c.3-2.29-6.44-12.32-4.17-14.19,1.27-.26,2.84.99,4.06,1.42,2.29,1.11,4.9,1.5,7.37,1.68,2.55.34,4.93.32,7.47-.49,4.26-1.02-1.98-4.92.43-7.15,2.4-.82,5.41,1.28,7.87,1.11,3.09-.32,9.87-.25,5.29-5.02-2.82-4.91-1.11-10.9,1.27-15.66,12.63-23.89-5.84-45.03-16.28-65.81-6.85-14.67-9.22-31.54-19.66-44.36-6.94-8.2-14.91-15.98-25.31-19.5-5.22-2.04-11.81-3.3-17.2-3.98-.23.03-.26.21-.13.39,7.31,7.15,7.18,18.83,2.01,27.2-3.13,5.47-7.68,10.33-9.93,16.28-5.46,12.48,2.5,21.23,11.76,28.71,8.7,7.47,15.45,17.77,17.42,29.21,1.26,8.81,1.22,21.45-8.01,25.89-5.77,2.4-12.28,1.89-17.37-2.1-6.36-4.18-11.89-13.29-11.29-21.08.51-3.28,2.17-2.26,6.86-4.8,4.7-2.54,7.13-10.24,3.44-15.13-2.76-3.05-7.48-3.97-12.68-3.97s-9.92.91-12.68,3.97c-3.69,4.89-1.25,12.59,3.44,15.13,4.7,2.54,6.36,1.52,6.86,4.8.6,7.79-4.93,16.9-11.29,21.08h-.04Z"/>
          <path class="st2" d="M672.04,246.02c-9.17-11.45-17.75-24.92-18.22-39.94-.06-2.21-1.58-1.16-2.6-.14-9.04,7.88-22.84,1.04-30.78-5.4-2.06-1.91-3.94-2.4-5.62-2.4s-3.56.49-5.62,2.4c-7.94,6.44-21.75,13.28-30.78,5.4-1.02-1.02-2.54-2.07-2.6.14-.47,15.02-9.05,28.49-18.22,39.94-.78,1.23-1.95,1.59-3.21,1.69h120.86c-1.26-.1-2.43-.46-3.21-1.69Z"/>
          <path d="M609.58,176.53c-.1-.04-.19-.07-.28-.1.1.03.19.07.28.1Z"/>
          <path d="M620.05,176.53c.1-.04.19-.07.28-.1-.1.03-.19.07-.28.1Z"/>
          <path class="st0" d="M645.86,202.77c-5.77,2.4-12.28,1.89-17.37-2.1-6.36-4.18-11.89-13.29-11.29-21.08.28-1.81.91-2.31,2.22-2.82-1.35.45-2.97.68-4.6.68s-3.25-.23-4.6-.68c1.3.51,1.94,1.01,2.22,2.82.6,7.79-4.93,16.9-11.29,21.08-5.09,3.98-11.6,4.5-17.37,2.1-1.29-.41-6.69.77-5.36,3.18,9.04,7.88,22.84,1.04,30.78-5.4,2.06-1.91,3.94-2.4,5.62-2.4s3.56.49,5.62,2.4c7.94,6.44,21.75,13.28,30.78,5.4,1.33-2.4-4.07-3.59-5.36-3.18h0Z"/>
          <path class="st0" d="M658.01,175.82c-2.25-12.37-9.12-22.14-16.15-28.52s-16.93-9.02-27.04-9.02-20.01,2.64-27.04,9.02c-7.03,6.38-13.9,16.15-16.15,28.52-2.25,12.37-.39,21.86,6.79,30.12-1.33-2.4,4.07-3.59,5.36-3.18-9.23-4.44-9.26-17.07-8.01-25.89,1.97-11.44,8.72-21.75,17.42-29.21,6.86-4.7,15.95-5.22,21.63-5.22s14.77.52,21.63,5.22c8.7,7.47,15.45,17.77,17.42,29.21,1.26,8.81,1.22,21.45-8.01,25.89,1.29-.41,6.69.77,5.36,3.18,7.18-8.27,9.04-17.75,6.79-30.12h0Z"/>
          <path class="st2" d="M645.86,202.77c-5.77,2.4-12.28,1.89-17.37-2.1-6.36-4.18-11.89-13.29-11.29-21.08.28-1.81.91-2.31,2.22-2.82.2-.08.41-.16.64-.24.1-.04.19-.07.28-.1.96-.35,2.17-.79,3.73-1.64,4.7-2.54,7.13-10.24,3.44-15.13-2.76-3.05-7.48-3.97-12.68-3.97s-9.92.91-12.68,3.97c-3.69,4.89-1.25,12.59,3.44,15.13,1.55.84,2.77,1.29,3.73,1.64.09.03.18.06.28.1.23.08.44.16.64.24,1.3.51,1.94,1.01,2.22,2.82.6,7.79-4.93,16.9-11.29,21.08-5.09,3.98-11.6,4.5-17.37,2.1-9.23-4.44-9.26-17.07-8.01-25.89,1.97-11.44,8.72-21.75,17.42-29.21,6.86-4.7,15.95-5.22,21.63-5.22s14.77.52,21.63,5.22c8.7,7.47,15.45,17.77,17.42,29.21,1.26,8.81,1.22,21.45-8.01,25.89h-.02Z"/>
          <path d="M627.5,159.66c-2.76-3.05-7.48-3.97-12.68-3.97s-9.92.91-12.68,3.97c-3.69,4.89-1.25,12.59,3.44,15.13,1.55.84,2.77,1.29,3.73,1.64.09.03.18.06.28.1.23.08.44.16.64.24,1.35.45,2.97.68,4.6.68s3.25-.23,4.6-.68c.2-.08.41-.16.64-.24.1-.04.19-.07.28-.1.96-.35,2.17-.79,3.73-1.64,4.7-2.54,7.13-10.24,3.44-15.13h-.02Z"/>
          <circle class="st2" cx="582.43" cy="126.95" r="12.69"/>
          <path d="M593.56,120.85c-2.16-3.93-6.33-6.59-11.13-6.59s-8.97,2.66-11.13,6.59c-.26.96-.41,1.97-.41,3.02,0,6.37,5.17,11.54,11.54,11.54s11.54-5.17,11.54-11.54c0-1.05-.15-2.06-.41-3.02Z"/>
          <circle class="st2" cx="647.2" cy="126.95" r="12.69"/>
          <path d="M636.07,120.85c2.16-3.93,6.33-6.59,11.13-6.59s8.97,2.66,11.13,6.59c.26.96.41,1.97.41,3.02,0,6.37-5.17,11.54-11.54,11.54s-11.54-5.17-11.54-11.54c0-1.05.15-2.06.41-3.02Z"/>
          <path class="st1" d="M589.26,113.59c1.02.18,2.02.14,3.14-.44,2.8-1.46,4.01-3.85,2.46-6.74-1.44-2.67-3.95-4.83-6.8-5.86-3.64-1.32-6.38-1.67-7.41-1.76-.16-.01-.25.18-.13.29l1.01,1.01c.1.1.04.28-.11.29-1.22.06-5.07.33-6.63,1.21-.12.07-.11.24.01.3,1.14.51,3.44,1.1,4.46,1.89.12.09.06.28-.09.3-4.6.5-7.66,2.9-8.66,3.8-.12.11-.03.31.13.29,3.05-.31,6.21-.41,7.82-.43.19,0,.24.26.06.33-2.71,1-4.29,2.44-4.94,3.14-.11.12,0,.31.16.28,2.83-.63,5.91-.14,8.71.42,1.36.27,2.72.58,4.06.95.98.27,1.88.59,2.77.75l-.02-.02Z"/>
          <path class="st1" d="M640.38,113.59c-1.02.18-2.02.14-3.14-.44-2.8-1.46-4.01-3.85-2.46-6.74,1.44-2.67,3.95-4.83,6.8-5.86,3.64-1.32,6.38-1.67,7.41-1.76.16-.01.25.18.13.29l-1.01,1.01c-.1.1-.04.28.11.29,1.22.06,5.07.33,6.63,1.21.12.07.11.24-.01.3-1.14.51-3.44,1.1-4.46,1.89-.12.09-.06.28.09.3,4.6.5,7.66,2.9,8.66,3.8.12.11.03.31-.13.29-3.05-.31-6.21-.41-7.82-.43-.19,0-.24.26-.06.33,2.71,1,4.29,2.44,4.94,3.14.11.12,0,.31-.16.28-2.83-.63-5.91-.14-8.71.42-1.36.27-2.72.58-4.06.95-.98.27-1.88.59-2.77.75l.02-.02Z"/>
          <path class="st1" d="M583.77,202.77c-9.23-4.44-9.26-17.07-8.01-25.89.37-2.17.92-4.3,1.62-6.37h0c-3.95,7.52-15.49,3.38-16.76-.59,1.46,13.15,4.2,25.56,23.15,32.85h0Z"/>
          <path class="st1" d="M645.86,202.77c9.23-4.44,9.26-17.07,8.01-25.89-.37-2.17-.92-4.3-1.62-6.37h0c3.95,7.52,15.49,3.38,16.76-.59-1.46,13.15-4.2,25.56-23.15,32.85h0Z"/>
        </g>
        <g>
          <g>
            <g>
              <path class="st2" d="M347.95,169.92c.57-1.62,1.23-3.2,1.97-4.74-.74,1.54-1.4,3.13-1.97,4.74Z"/>
              <path class="st2" d="M351.55,162.09c.56-.97,1.15-1.93,1.77-2.87-.62.94-1.21,1.89-1.77,2.87Z"/>
              <path class="st2" d="M420.44,165.17c.74,1.54,1.4,3.13,1.97,4.74-.57-1.62-1.23-3.2-1.97-4.74Z"/>
              <path class="st2" d="M362.17,148.9c-.37.34-.73.68-1.09,1.02.36-.35.72-.69,1.09-1.02Z"/>
              <path class="st2" d="M363.55,147.67c-.38.33-.76.66-1.13,1,.37-.34.75-.67,1.13-1Z"/>
              <path class="st2" d="M359.93,151.06c.33-.33.65-.66.99-.98-.33.32-.66.65-.99.98Z"/>
              <path class="st2" d="M353.35,159.17c.3-.46.62-.91.93-1.36-.32.45-.63.9-.93,1.36Z"/>
              <path class="st2" d="M357.5,153.7c.34-.39.68-.77,1.03-1.16-.35.38-.69.77-1.03,1.16Z"/>
              <path class="st2" d="M358.71,152.35c.34-.37.69-.74,1.05-1.11-.35.36-.7.73-1.05,1.11Z"/>
              <path class="st2" d="M356.47,154.94c.34-.41.68-.82,1.02-1.23-.35.4-.69.81-1.02,1.23Z"/>
              <path class="st2" d="M354.36,157.71c.63-.88,1.28-1.75,1.96-2.59-.68.84-1.34,1.71-1.96,2.59Z"/>
              <path class="st2" d="M351.51,162.16c-.56.98-1.08,1.98-1.57,2.99.49-1.02,1.01-2.01,1.57-2.99Z"/>
              <path class="st2" d="M420.43,165.15c-.49-1.02-1.01-2.01-1.57-2.99.56.98,1.08,1.98,1.57,2.99Z"/>
              <path class="st2" d="M410.43,151.06c-.33-.33-.65-.66-.99-.98.33.32.66.65.99.98Z"/>
              <path class="st2" d="M409.29,149.92c-.36-.35-.72-.69-1.09-1.02.37.34.73.68,1.09,1.02Z"/>
              <path class="st2" d="M410.61,151.24c.35.36.7.73,1.05,1.11-.34-.37-.69-.74-1.05-1.11Z"/>
              <path class="st2" d="M367.39,75.48c-7.31,7.15-7.18,18.83-2.01,27.2,3.13,5.47,7.68,10.33,9.93,16.28,5.46,12.48-2.5,21.23-11.76,28.71,6.86-4.7,15.94-5.22,21.63-5.22s14.77.52,21.63,5.22c-9.26-7.48-17.22-16.23-11.76-28.71,2.25-5.95,6.8-10.81,9.93-16.28,5.17-8.37,5.3-20.05-2.01-27.2-.13-.18-.1-.35.13-.39-3.86-.51-9.07-1.56-17.93-1.56s-14.06,1.04-17.93,1.56c.23.03.26.21.13.39h.02Z"/>
              <path class="st2" d="M407.95,148.67c-.37-.34-.75-.67-1.13-1,.38.33.76.66,1.13,1Z"/>
              <path class="st2" d="M411.83,152.54c.35.38.69.77,1.03,1.16-.34-.39-.68-.77-1.03-1.16Z"/>
              <path class="st2" d="M417.05,159.23c.62.94,1.21,1.89,1.77,2.87-.56-.97-1.15-1.93-1.77-2.87Z"/>
              <path class="st2" d="M416.08,157.81c.32.45.63.9.93,1.36-.3-.46-.62-.91-.93-1.36Z"/>
              <path class="st2" d="M412.87,153.71c.35.4.69.81,1.02,1.23-.34-.41-.68-.82-1.02-1.23Z"/>
              <path class="st2" d="M414.04,155.12c.68.84,1.34,1.71,1.96,2.59-.63-.88-1.28-1.75-1.96-2.59Z"/>
            </g>
            <path class="st1" d="M426.62,22.43c-2.43,1.01-4.29,3.66-4.09,6.34.06,1.07.49,2.17.28,3.23-.32,1.19-1.49,1.89-2.39,2.68-2.5,2.09-5.5,3.65-8.59,4.81-5.66,2.52-8.75.71-12.92-3.28-3.74-3.7-6.26-8.52-8.13-13.36-.42-1.21-1.24-2.38-1.25-3.58.07-1.15,1.42-1.98,2.16-2.9,1.91-2.04,2.48-4.85,1.64-7.45-1.3-4.07-3.83-6.39-8.16-6.39s-6.86,2.32-8.16,6.39c-.83,2.6-.26,5.41,1.64,7.45.73.92,2.08,1.75,2.16,2.9,0,1.21-.83,2.37-1.25,3.58-1.87,4.84-4.39,9.66-8.13,13.36-4.16,3.99-7.26,5.8-12.92,3.28-3.09-1.16-6.09-2.72-8.59-4.81-.9-.8-2.07-1.49-2.39-2.68-.21-1.06.22-2.15.28-3.23.2-2.68-1.66-5.33-4.09-6.34-5.96-2.66-11.75,5.08-7.62,10.1,1.31,1.9,4.1,2.19,4.98,4.43,1.5,5.53,2.57,11.3,4.15,16.79.48,1.73,1.08,3.45,1.51,5.2.72,2.3.8,4.86,3.16,6.18,2.47,1.06,4.4.19,6.92-.32,9.16-2.67,19.69-3.9,28.34-3.9s19.19,1.23,28.34,3.9c2.52.51,4.44,1.38,6.92.32,2.36-1.33,2.44-3.89,3.16-6.18.43-1.75,1.03-3.47,1.51-5.2,1.58-5.49,2.66-11.26,4.15-16.79.88-2.24,3.67-2.53,4.98-4.43,4.13-5.02-1.66-12.76-7.62-10.1h.02Z"/>
            <path class="st3" d="M420.22,65.92"/>
            <path class="st1" d="M371.51,200.67c-5.09,3.98-11.6,4.5-17.37,2.1-9.23-4.44-9.26-17.07-8.01-25.89,1.97-11.44,8.72-21.75,17.42-29.21,9.26-7.48,17.22-16.23,11.76-28.71-2.25-5.95-6.8-10.81-9.93-16.28-5.17-8.37-5.3-20.05,2.01-27.2.13-.18.1-.35-.13-.39-5.4.68-11.98,1.94-17.2,3.98-10.4,3.52-18.37,11.29-25.31,19.5-10.45,12.82-12.81,29.69-19.66,44.36-10.44,20.78-28.91,41.92-16.28,65.81,2.38,4.77,4.09,10.75,1.27,15.66-4.58,4.77,2.2,4.7,5.29,5.02,2.46.17,5.47-1.94,7.87-1.11,2.41,2.23-3.84,6.13.43,7.15,2.53.81,4.92.83,7.47.49,2.47-.17,5.07-.57,7.37-1.68,1.22-.43,2.79-1.69,4.06-1.42,2.27,1.87-4.47,11.9-4.17,14.19l.02.04c.86,1.02,2.29.51,4.07.65,2.02,0,4.24.25,5.49-1.71,9.17-11.45,17.75-24.92,18.22-39.94.06-2.21,1.58-1.16,2.6-.14,9.04,7.88,22.84,1.04,30.78-5.4,2.06-1.91,3.94-2.4,5.62-2.4s3.56.49,5.62,2.4c7.94,6.44,21.75,13.28,30.78,5.4,1.02-1.02,2.54-2.07,2.6.14.47,15.02,9.05,28.49,18.22,39.94,1.25,1.96,3.46,1.71,5.49,1.71,1.78-.14,3.21.38,4.07-.65l.02-.04c.3-2.29-6.44-12.32-4.17-14.19,1.27-.26,2.84.99,4.06,1.42,2.29,1.11,4.9,1.5,7.37,1.68,2.55.34,4.93.32,7.47-.49,4.26-1.02-1.98-4.92.43-7.15,2.4-.82,5.41,1.28,7.87,1.11,3.09-.32,9.87-.25,5.29-5.02-2.82-4.91-1.11-10.9,1.27-15.66,12.63-23.89-5.84-45.03-16.28-65.81-6.85-14.67-9.22-31.54-19.66-44.36-6.94-8.2-14.91-15.98-25.31-19.5-5.22-2.04-11.81-3.3-17.2-3.98-.23.03-.26.21-.13.39,7.31,7.15,7.18,18.83,2.01,27.2-3.13,5.47-7.68,10.33-9.93,16.28-5.46,12.48,2.5,21.23,11.76,28.71,8.7,7.47,15.45,17.77,17.42,29.21,1.26,8.81,1.22,21.45-8.01,25.89-5.77,2.4-12.28,1.89-17.37-2.1-6.36-4.18-11.89-13.29-11.29-21.08.51-3.28,2.17-2.26,6.86-4.8,4.7-2.54,7.13-10.24,3.44-15.13-2.76-3.05-7.48-3.97-12.68-3.97s-9.92.91-12.68,3.97c-3.69,4.89-1.25,12.59,3.44,15.13,4.7,2.54,6.36,1.52,6.86,4.8.6,7.79-4.93,16.9-11.29,21.08h-.04Z"/>
            <path class="st2" d="M442.41,246.02c-9.17-11.45-17.75-24.92-18.22-39.94-.06-2.21-1.58-1.16-2.6-.14-9.04,7.88-22.84,1.04-30.78-5.4-2.06-1.91-3.94-2.4-5.62-2.4s-3.56.49-5.62,2.4c-7.94,6.44-21.75,13.28-30.78,5.4-1.02-1.02-2.54-2.07-2.6.14-.47,15.02-9.05,28.49-18.22,39.94-.78,1.23-1.95,1.59-3.21,1.69h120.86c-1.26-.1-2.43-.46-3.21-1.69Z"/>
            <path d="M379.95,176.53c-.1-.04-.19-.07-.28-.1.1.03.19.07.28.1Z"/>
            <circle class="st2" cx="352.8" cy="126.95" r="12.69"/>
            <path d="M363.93,120.85c-2.16-3.93-6.33-6.59-11.13-6.59s-8.97,2.66-11.13,6.59c-.26.96-.41,1.97-.41,3.02,0,6.37,5.17,11.54,11.54,11.54s11.54-5.17,11.54-11.54c0-1.05-.15-2.06-.41-3.02Z"/>
            <circle class="st2" cx="417.57" cy="126.95" r="12.69"/>
            <path d="M406.44,120.85c2.16-3.93,6.33-6.59,11.13-6.59s8.97,2.66,11.13,6.59c.26.96.41,1.97.41,3.02,0,6.37-5.17,11.54-11.54,11.54s-11.54-5.17-11.54-11.54c0-1.05.15-2.06.41-3.02Z"/>
            <path d="M390.41,176.53c.1-.04.19-.07.28-.1-.1.03-.19.07-.28.1Z"/>
            <path class="st0" d="M416.23,202.77c-5.77,2.4-12.28,1.89-17.37-2.1-6.36-4.18-11.89-13.29-11.29-21.08.28-1.81.91-2.31,2.22-2.82-1.35.45-2.97.68-4.6.68s-3.25-.23-4.6-.68c1.3.51,1.94,1.01,2.22,2.82.6,7.79-4.93,16.9-11.29,21.08-5.09,3.98-11.6,4.5-17.37,2.1-1.29-.41-6.69.77-5.36,3.18,9.04,7.88,22.84,1.04,30.78-5.4,2.06-1.91,3.94-2.4,5.62-2.4s3.56.49,5.62,2.4c7.94,6.44,21.75,13.28,30.78,5.4,1.33-2.4-4.07-3.59-5.36-3.18Z"/>
            <path class="st0" d="M428.37,175.82c-2.25-12.37-9.12-22.14-16.15-28.52s-16.93-9.02-27.04-9.02-20.01,2.64-27.04,9.02-13.9,16.15-16.15,28.52c-2.25,12.37-.39,21.86,6.79,30.12-1.33-2.4,4.07-3.59,5.36-3.18-9.23-4.44-9.26-17.07-8.01-25.89,1.97-11.44,8.72-21.75,17.42-29.21,6.86-4.7,15.95-5.22,21.63-5.22s14.77.52,21.63,5.22c8.7,7.47,15.45,17.77,17.42,29.21,1.26,8.81,1.22,21.45-8.01,25.89,1.29-.41,6.69.77,5.36,3.18,7.18-8.27,9.04-17.75,6.79-30.12h0Z"/>
            <path class="st2" d="M416.23,202.77c-5.77,2.4-12.28,1.89-17.37-2.1-6.36-4.18-11.89-13.29-11.29-21.08.28-1.81.91-2.31,2.22-2.82.2-.08.41-.16.64-.24.1-.04.19-.07.28-.1.96-.35,2.17-.79,3.73-1.64,4.7-2.54,7.13-10.24,3.44-15.13-2.76-3.05-7.48-3.97-12.68-3.97s-9.92.91-12.68,3.97c-3.69,4.89-1.25,12.59,3.44,15.13,1.55.84,2.77,1.29,3.73,1.64.09.03.18.06.28.1.23.08.44.16.64.24,1.3.51,1.94,1.01,2.22,2.82.6,7.79-4.93,16.9-11.29,21.08-5.09,3.98-11.6,4.5-17.37,2.1-9.23-4.44-9.26-17.07-8.01-25.89,1.97-11.44,8.72-21.75,17.42-29.21,6.86-4.7,15.95-5.22,21.63-5.22s14.77.52,21.63,5.22c8.7,7.47,15.45,17.77,17.42,29.21,1.26,8.81,1.22,21.45-8.01,25.89h-.02Z"/>
            <path d="M397.87,159.66c-2.76-3.05-7.48-3.97-12.68-3.97s-9.92.91-12.68,3.97c-3.69,4.89-1.25,12.59,3.44,15.13,1.55.84,2.77,1.29,3.73,1.64.09.03.18.06.28.1.23.08.44.16.64.24,1.35.45,2.97.68,4.6.68s3.25-.23,4.6-.68c.2-.08.41-.16.64-.24.1-.04.19-.07.28-.1.96-.35,2.17-.79,3.73-1.64,4.7-2.54,7.13-10.24,3.44-15.13h-.02Z"/>
            <path class="st1" d="M359.62,113.59c1.02.18,2.02.14,3.14-.44,2.8-1.46,4.01-3.85,2.46-6.74-1.44-2.67-3.95-4.83-6.8-5.86-3.64-1.32-6.38-1.67-7.41-1.76-.16-.01-.25.18-.13.29l1.01,1.01c.1.1.04.28-.11.29-1.22.06-5.07.33-6.63,1.21-.12.07-.11.24.01.3,1.14.51,3.44,1.1,4.46,1.89.12.09.06.28-.09.3-4.6.5-7.66,2.9-8.66,3.8-.12.11-.03.31.13.29,3.05-.31,6.21-.41,7.82-.43.19,0,.24.26.06.33-2.71,1-4.29,2.44-4.94,3.14-.11.12,0,.31.16.28,2.83-.63,5.91-.14,8.71.42,1.36.27,2.72.58,4.06.95.98.27,1.88.59,2.77.75l-.02-.02Z"/>
            <path class="st1" d="M410.74,113.59c-1.02.18-2.02.14-3.14-.44-2.8-1.46-4.01-3.85-2.46-6.74,1.44-2.67,3.95-4.83,6.8-5.86,3.64-1.32,6.38-1.67,7.41-1.76.16-.01.25.18.13.29l-1.01,1.01c-.1.1-.04.28.11.29,1.22.06,5.07.33,6.63,1.21.12.07.11.24-.01.3-1.14.51-3.44,1.1-4.46,1.89-.12.09-.06.28.09.3,4.6.5,7.66,2.9,8.66,3.8.12.11.03.31-.13.29-3.05-.31-6.21-.41-7.82-.43-.19,0-.24.26-.06.33,2.71,1,4.29,2.44,4.94,3.14.11.12,0,.31-.16.28-2.83-.63-5.91-.14-8.71.42-1.36.27-2.72.58-4.06.95-.98.27-1.88.59-2.77.75l.02-.02Z"/>
          </g>
          <path class="st0" d="M354.14,202.77c-9.23-4.44-9.26-17.07-8.01-25.89.37-2.17.92-4.3,1.62-6.37h0c-3.95,7.52-15.49,3.38-16.76-.59,1.46,13.15,4.2,25.56,23.15,32.85h0Z"/>
          <path class="st0" d="M416.23,202.77c9.23-4.44,9.26-17.07,8.01-25.89-.37-2.17-.92-4.3-1.62-6.37h0c3.95,7.52,15.49,3.38,16.76-.59-1.46,13.15-4.2,25.56-23.15,32.85h0Z"/>
        </g>
        <g>
          <g>
            <g>
              <path class="st1" d="M807.22,169.92c.57-1.62,1.23-3.2,1.97-4.74-.74,1.54-1.4,3.13-1.97,4.74Z"/>
              <path class="st1" d="M810.82,162.09c.56-.97,1.15-1.93,1.77-2.87-.62.94-1.21,1.89-1.77,2.87Z"/>
              <path class="st1" d="M879.71,165.17c.74,1.54,1.4,3.13,1.97,4.74-.57-1.62-1.23-3.2-1.97-4.74Z"/>
              <path class="st1" d="M821.44,148.9c-.37.34-.73.68-1.09,1.02.36-.35.72-.69,1.09-1.02Z"/>
              <path class="st1" d="M822.82,147.67c-.38.33-.76.66-1.13,1,.37-.34.75-.67,1.13-1Z"/>
              <path class="st1" d="M819.2,151.06c.33-.33.65-.66.99-.98-.33.32-.66.65-.99.98Z"/>
              <path class="st1" d="M812.62,159.17c.3-.46.62-.91.93-1.36-.32.45-.63.9-.93,1.36Z"/>
              <path class="st1" d="M816.77,153.7c.34-.39.68-.77,1.03-1.16-.35.38-.69.77-1.03,1.16Z"/>
              <path class="st1" d="M817.98,152.35c.34-.37.69-.74,1.05-1.11-.35.36-.7.73-1.05,1.11Z"/>
              <path class="st1" d="M815.74,154.94c.34-.41.68-.82,1.02-1.23-.35.4-.69.81-1.02,1.23Z"/>
              <path class="st1" d="M813.63,157.71c.63-.88,1.28-1.75,1.96-2.59-.68.84-1.34,1.71-1.96,2.59Z"/>
              <path class="st1" d="M810.78,162.16c-.56.98-1.08,1.98-1.57,2.99.49-1.02,1.01-2.01,1.57-2.99Z"/>
              <path class="st1" d="M879.7,165.15c-.49-1.02-1.01-2.01-1.57-2.99.56.98,1.08,1.98,1.57,2.99Z"/>
              <path class="st1" d="M869.7,151.06c-.33-.33-.65-.66-.99-.98.33.32.66.65.99.98Z"/>
              <path class="st1" d="M868.56,149.92c-.36-.35-.72-.69-1.09-1.02.37.34.73.68,1.09,1.02Z"/>
              <path class="st1" d="M869.88,151.24c.35.36.7.73,1.05,1.11-.34-.37-.69-.74-1.05-1.11Z"/>
              <path class="st1" d="M826.66,75.48c-7.31,7.15-7.18,18.83-2.01,27.2,3.13,5.47,7.68,10.33,9.93,16.28,5.46,12.48-2.5,21.23-11.76,28.71,6.86-4.7,15.94-5.22,21.63-5.22s14.77.52,21.63,5.22c-9.26-7.48-17.22-16.23-11.76-28.71,2.25-5.95,6.8-10.81,9.93-16.28,5.17-8.37,5.3-20.05-2.01-27.2-.13-.18-.1-.35.13-.39-3.86-.51-9.07-1.56-17.93-1.56s-14.06,1.04-17.93,1.56c.23.03.26.21.13.39h.02Z"/>
              <path class="st1" d="M867.22,148.67c-.37-.34-.75-.67-1.13-1,.38.33.76.66,1.13,1Z"/>
              <path class="st1" d="M871.1,152.54c.35.38.69.77,1.03,1.16-.34-.39-.68-.77-1.03-1.16Z"/>
              <path class="st1" d="M876.32,159.23c.62.94,1.21,1.89,1.77,2.87-.56-.97-1.15-1.93-1.77-2.87Z"/>
              <path class="st1" d="M875.35,157.81c.32.45.63.9.93,1.36-.3-.46-.62-.91-.93-1.36Z"/>
              <path class="st1" d="M872.14,153.71c.35.4.69.81,1.02,1.23-.34-.41-.68-.82-1.02-1.23Z"/>
              <path class="st1" d="M873.31,155.12c.68.84,1.34,1.71,1.96,2.59-.63-.88-1.28-1.75-1.96-2.59Z"/>
            </g>
            <path class="st1" d="M885.89,22.43c-2.43,1.01-4.29,3.66-4.09,6.34.06,1.07.49,2.17.28,3.23-.32,1.19-1.49,1.89-2.39,2.68-2.5,2.09-5.5,3.65-8.59,4.81-5.66,2.52-8.75.71-12.92-3.28-3.74-3.7-6.26-8.52-8.13-13.36-.42-1.21-1.24-2.38-1.25-3.58.07-1.15,1.42-1.98,2.16-2.9,1.91-2.04,2.48-4.85,1.64-7.45-1.3-4.07-3.83-6.39-8.16-6.39s-6.86,2.32-8.16,6.39c-.83,2.6-.26,5.41,1.64,7.45.73.92,2.08,1.75,2.16,2.9,0,1.21-.83,2.37-1.25,3.58-1.87,4.84-4.39,9.66-8.13,13.36-4.16,3.99-7.26,5.8-12.92,3.28-3.09-1.16-6.09-2.72-8.59-4.81-.9-.8-2.07-1.49-2.39-2.68-.21-1.06.22-2.15.28-3.23.2-2.68-1.66-5.33-4.09-6.34-5.96-2.66-11.75,5.08-7.62,10.1,1.31,1.9,4.1,2.19,4.98,4.43,1.5,5.53,2.57,11.3,4.15,16.79.48,1.73,1.08,3.45,1.51,5.2.72,2.3.8,4.86,3.16,6.18,2.47,1.06,4.4.19,6.92-.32,9.16-2.67,19.69-3.9,28.34-3.9s19.19,1.23,28.34,3.9c2.52.51,4.44,1.38,6.92.32,2.36-1.33,2.44-3.89,3.16-6.18.43-1.75,1.03-3.47,1.51-5.2,1.58-5.49,2.66-11.26,4.15-16.79.88-2.24,3.67-2.53,4.98-4.43,4.13-5.02-1.66-12.76-7.62-10.1h.02Z"/>
            <path class="st3" d="M879.49,65.92"/>
            <path class="st1" d="M830.78,200.67c-5.09,3.98-11.6,4.5-17.37,2.1-9.23-4.44-9.26-17.07-8.01-25.89,1.97-11.44,8.72-21.75,17.42-29.21,9.26-7.48,17.22-16.23,11.76-28.71-2.25-5.95-6.8-10.81-9.93-16.28-5.17-8.37-5.3-20.05,2.01-27.2.13-.18.1-.35-.13-.39-5.4.68-11.98,1.94-17.2,3.98-10.4,3.52-18.37,11.29-25.31,19.5-10.45,12.82-12.81,29.69-19.66,44.36-10.44,20.78-28.91,41.92-16.28,65.81,2.38,4.77,4.09,10.75,1.27,15.66-4.58,4.77,2.2,4.7,5.29,5.02,2.46.17,5.47-1.94,7.87-1.11,2.41,2.23-3.84,6.13.43,7.15,2.53.81,4.92.83,7.47.49,2.47-.17,5.07-.57,7.37-1.68,1.22-.43,2.79-1.69,4.06-1.42,2.27,1.87-4.47,11.9-4.17,14.19l.02.04c.86,1.02,2.29.51,4.07.65,2.02,0,4.24.25,5.49-1.71,9.17-11.45,17.75-24.92,18.22-39.94.06-2.21,1.58-1.16,2.6-.14,9.04,7.88,22.84,1.04,30.78-5.4,2.06-1.91,3.94-2.4,5.62-2.4s3.56.49,5.62,2.4c7.94,6.44,21.75,13.28,30.78,5.4,1.02-1.02,2.54-2.07,2.6.14.47,15.02,9.05,28.49,18.22,39.94,1.25,1.96,3.46,1.71,5.49,1.71,1.78-.14,3.21.38,4.07-.65l.02-.04c.3-2.29-6.44-12.32-4.17-14.19,1.27-.26,2.84.99,4.06,1.42,2.29,1.11,4.9,1.5,7.37,1.68,2.55.34,4.93.32,7.47-.49,4.26-1.02-1.98-4.92.43-7.15,2.4-.82,5.41,1.28,7.87,1.11,3.09-.32,9.87-.25,5.29-5.02-2.82-4.91-1.11-10.9,1.27-15.66,12.63-23.89-5.84-45.03-16.28-65.81-6.85-14.67-9.22-31.54-19.66-44.36-6.94-8.2-14.91-15.98-25.31-19.5-5.22-2.04-11.81-3.3-17.2-3.98-.23.03-.26.21-.13.39,7.31,7.15,7.18,18.83,2.01,27.2-3.13,5.47-7.68,10.33-9.93,16.28-5.46,12.48,2.5,21.23,11.76,28.71,8.7,7.47,15.45,17.77,17.42,29.21,1.26,8.81,1.22,21.45-8.01,25.89-5.77,2.4-12.28,1.89-17.37-2.1-6.36-4.18-11.89-13.29-11.29-21.08.51-3.28,2.17-2.26,6.86-4.8,4.7-2.54,7.13-10.24,3.44-15.13-2.76-3.05-7.48-3.97-12.68-3.97s-9.92.91-12.68,3.97c-3.69,4.89-1.25,12.59,3.44,15.13,4.7,2.54,6.36,1.52,6.86,4.8.6,7.79-4.93,16.9-11.29,21.08h-.04Z"/>
            <path class="st1" d="M901.68,246.02c-9.17-11.45-17.75-24.92-18.22-39.94-.06-2.21-1.58-1.16-2.6-.14-9.04,7.88-22.84,1.04-30.78-5.4-2.06-1.91-3.94-2.4-5.62-2.4s-3.56.49-5.62,2.4c-7.94,6.44-21.75,13.28-30.78,5.4-1.02-1.02-2.54-2.07-2.6.14-.47,15.02-9.05,28.49-18.22,39.94-.78,1.23-1.95,1.59-3.21,1.69h120.86c-1.26-.1-2.43-.46-3.21-1.69Z"/>
            <path d="M839.22,176.53c-.1-.04-.19-.07-.28-.1.1.03.19.07.28.1Z"/>
            <path d="M849.68,176.53c.1-.04.19-.07.28-.1-.1.03-.19.07-.28.1Z"/>
            <path d="M875.5,202.77c-5.77,2.4-12.28,1.89-17.37-2.1-6.36-4.18-11.89-13.29-11.29-21.08.28-1.81.91-2.31,2.22-2.82-1.35.45-2.97.68-4.6.68s-3.25-.23-4.6-.68c1.3.51,1.94,1.01,2.22,2.82.6,7.79-4.93,16.9-11.29,21.08-5.09,3.98-11.6,4.5-17.37,2.1-1.29-.41-6.69.77-5.36,3.18,9.04,7.88,22.84,1.04,30.78-5.4,2.06-1.91,3.94-2.4,5.62-2.4s3.56.49,5.62,2.4c7.94,6.44,21.75,13.28,30.78,5.4,1.33-2.4-4.07-3.59-5.36-3.18h0Z"/>
            <path class="st0" d="M887.64,175.82c-2.25-12.37-9.12-22.14-16.15-28.52s-16.93-9.02-27.04-9.02-20.01,2.64-27.04,9.02c-7.03,6.38-13.9,16.15-16.15,28.52-2.25,12.37-.39,21.86,6.79,30.12-1.33-2.4,4.07-3.59,5.36-3.18-9.23-4.44-9.26-17.07-8.01-25.89,1.97-11.44,8.72-21.75,17.42-29.21,6.86-4.7,15.95-5.22,21.63-5.22s14.77.52,21.63,5.22c8.7,7.47,15.45,17.77,17.42,29.21,1.26,8.81,1.22,21.45-8.01,25.89,1.29-.41,6.69.77,5.36,3.18,7.18-8.27,9.04-17.75,6.79-30.12h0Z"/>
            <path class="st1" d="M875.5,202.77c-5.77,2.4-12.28,1.89-17.37-2.1-6.36-4.18-11.89-13.29-11.29-21.08.28-1.81.91-2.31,2.22-2.82.2-.08.41-.16.64-.24.1-.04.19-.07.28-.1.96-.35,2.17-.79,3.73-1.64,4.7-2.54,7.13-10.24,3.44-15.13-2.76-3.05-7.48-3.97-12.68-3.97s-9.92.91-12.68,3.97c-3.69,4.89-1.25,12.59,3.44,15.13,1.55.84,2.77,1.29,3.73,1.64.09.03.18.06.28.1.23.08.44.16.64.24,1.3.51,1.94,1.01,2.22,2.82.6,7.79-4.93,16.9-11.29,21.08-5.09,3.98-11.6,4.5-17.37,2.1-9.23-4.44-9.26-17.07-8.01-25.89,1.97-11.44,8.72-21.75,17.42-29.21,6.86-4.7,15.95-5.22,21.63-5.22s14.77.52,21.63,5.22c8.7,7.47,15.45,17.77,17.42,29.21,1.26,8.81,1.22,21.45-8.01,25.89h-.02Z"/>
            <path d="M857.14,159.66c-2.76-3.05-7.48-3.97-12.68-3.97s-9.92.91-12.68,3.97c-3.69,4.89-1.25,12.59,3.44,15.13,1.55.84,2.77,1.29,3.73,1.64.09.03.18.06.28.1.23.08.44.16.64.24,1.35.45,2.97.68,4.6.68s3.25-.23,4.6-.68c.2-.08.41-.16.64-.24.1-.04.19-.07.28-.1.96-.35,2.17-.79,3.73-1.64,4.7-2.54,7.13-10.24,3.44-15.13h-.02Z"/>
            <circle class="st2" cx="812.07" cy="126.95" r="12.69"/>
            <path d="M823.2,120.85c-2.16-3.93-6.33-6.59-11.13-6.59s-8.97,2.66-11.13,6.59c-.26.96-.41,1.97-.41,3.02,0,6.37,5.17,11.54,11.54,11.54s11.54-5.17,11.54-11.54c0-1.05-.15-2.06-.41-3.02Z"/>
            <circle class="st2" cx="876.84" cy="126.95" r="12.69"/>
            <path d="M865.71,120.85c2.16-3.93,6.33-6.59,11.13-6.59s8.97,2.66,11.13,6.59c.26.96.41,1.97.41,3.02,0,6.37-5.17,11.54-11.54,11.54s-11.54-5.17-11.54-11.54c0-1.05.15-2.06.41-3.02Z"/>
            <path class="st1" d="M818.89,113.59c1.02.18,2.02.14,3.14-.44,2.8-1.46,4.01-3.85,2.46-6.74-1.44-2.67-3.95-4.83-6.8-5.86-3.64-1.32-6.38-1.67-7.41-1.76-.16-.01-.25.18-.13.29l1.01,1.01c.1.1.04.28-.11.29-1.22.06-5.07.33-6.63,1.21-.12.07-.11.24.01.3,1.14.51,3.44,1.1,4.46,1.89.12.09.06.28-.09.3-4.6.5-7.66,2.9-8.66,3.8-.12.11-.03.31.13.29,3.05-.31,6.21-.41,7.82-.43.19,0,.24.26.06.33-2.71,1-4.29,2.44-4.94,3.14-.11.12,0,.31.16.28,2.83-.63,5.91-.14,8.71.42,1.36.27,2.72.58,4.06.95.98.27,1.88.59,2.77.75l-.02-.02Z"/>
            <path class="st1" d="M870.01,113.59c-1.02.18-2.02.14-3.14-.44-2.8-1.46-4.01-3.85-2.46-6.74,1.44-2.67,3.95-4.83,6.8-5.86,3.64-1.32,6.38-1.67,7.41-1.76.16-.01.25.18.13.29l-1.01,1.01c-.1.1-.04.28.11.29,1.22.06,5.07.33,6.63,1.21.12.07.11.24-.01.3-1.14.51-3.44,1.1-4.46,1.89-.12.09-.06.28.09.3,4.6.5,7.66,2.9,8.66,3.8.12.11.03.31-.13.29-3.05-.31-6.21-.41-7.82-.43-.19,0-.24.26-.06.33,2.71,1,4.29,2.44,4.94,3.14.11.12,0,.31-.16.28-2.83-.63-5.91-.14-8.71.42-1.36.27-2.72.58-4.06.95-.98.27-1.88.59-2.77.75l.02-.02Z"/>
          </g>
          <path class="st0" d="M813.41,202.77c-9.23-4.44-9.26-17.07-8.01-25.89.37-2.17.92-4.3,1.62-6.37h0c-3.95,7.52-15.49,3.38-16.76-.59,1.46,13.15,4.2,25.56,23.15,32.85h0Z"/>
          <path class="st0" d="M875.5,202.77c9.23-4.44,9.26-17.07,8.01-25.89-.37-2.17-.92-4.3-1.62-6.37h0c3.95,7.52,15.49,3.38,16.76-.59-1.46,13.15-4.2,25.56-23.15,32.85h0Z"/>
        </g>
      </g>
      <g>
        <g>
          <g>
            <path d="M118.32,169.92c.57-1.62,1.23-3.2,1.97-4.74-.74,1.54-1.4,3.13-1.97,4.74Z"/>
            <path d="M121.91,162.09c.56-.97,1.15-1.93,1.77-2.87-.62.94-1.21,1.89-1.77,2.87Z"/>
            <path d="M190.8,165.17c.74,1.54,1.4,3.13,1.97,4.74-.57-1.62-1.23-3.2-1.97-4.74Z"/>
            <path d="M132.53,148.9c-.37.34-.73.68-1.09,1.02.36-.35.72-.69,1.09-1.02Z"/>
            <path d="M133.91,147.67c-.38.33-.76.66-1.13,1,.37-.34.75-.67,1.13-1Z"/>
            <path d="M130.3,151.06c.33-.33.65-.66.99-.98-.33.32-.66.65-.99.98Z"/>
            <path d="M123.71,159.17c.3-.46.62-.91.93-1.36-.32.45-.63.9-.93,1.36Z"/>
            <path d="M127.87,153.7c.34-.39.68-.77,1.03-1.16-.35.38-.69.77-1.03,1.16Z"/>
            <path d="M129.07,152.35c.34-.37.69-.74,1.05-1.11-.35.36-.7.73-1.05,1.11Z"/>
            <path d="M126.83,154.94c.34-.41.68-.82,1.02-1.23-.35.4-.69.81-1.02,1.23Z"/>
            <path d="M124.72,157.71c.63-.88,1.28-1.75,1.96-2.59-.68.84-1.34,1.71-1.96,2.59Z"/>
            <path d="M121.88,162.16c-.56.98-1.08,1.98-1.57,2.99.49-1.02,1.01-2.01,1.57-2.99Z"/>
            <path d="M190.79,165.15c-.49-1.02-1.01-2.01-1.57-2.99.56.98,1.08,1.98,1.57,2.99Z"/>
            <path d="M180.8,151.06c-.33-.33-.65-.66-.99-.98.33.32.66.65.99.98Z"/>
            <path d="M179.65,149.92c-.36-.35-.72-.69-1.09-1.02.37.34.73.68,1.09,1.02Z"/>
            <path d="M180.97,151.24c.35.36.7.73,1.05,1.11-.34-.37-.69-.74-1.05-1.11Z"/>
            <path d="M137.75,75.48c-7.31,7.15-7.18,18.83-2.01,27.2,3.13,5.47,7.68,10.33,9.93,16.28,5.46,12.48-2.5,21.23-11.76,28.71,6.86-4.7,15.94-5.22,21.63-5.22s14.77.52,21.63,5.22c-9.26-7.48-17.22-16.23-11.76-28.71,2.25-5.95,6.8-10.81,9.93-16.28,5.17-8.37,5.3-20.05-2.01-27.2-.13-.18-.1-.35.13-.39-3.86-.51-9.07-1.56-17.93-1.56s-14.06,1.04-17.93,1.56c.23.03.26.21.13.39h.02Z"/>
            <path d="M178.31,148.67c-.37-.34-.75-.67-1.13-1,.38.33.76.66,1.13,1Z"/>
            <path d="M182.2,152.54c.35.38.69.77,1.03,1.16-.34-.39-.68-.77-1.03-1.16Z"/>
            <path d="M187.41,159.23c.62.94,1.21,1.89,1.77,2.87-.56-.97-1.15-1.93-1.77-2.87Z"/>
            <path d="M186.45,157.81c.32.45.63.9.93,1.36-.3-.46-.62-.91-.93-1.36Z"/>
            <path d="M183.24,153.71c.35.4.69.81,1.02,1.23-.34-.41-.68-.82-1.02-1.23Z"/>
            <path d="M184.41,155.12c.68.84,1.34,1.71,1.96,2.59-.63-.88-1.28-1.75-1.96-2.59Z"/>
          </g>
          <path d="M196.99,22.43c-2.43,1.01-4.29,3.66-4.09,6.34.06,1.07.49,2.17.28,3.23-.32,1.19-1.49,1.89-2.39,2.68-2.5,2.09-5.5,3.65-8.59,4.81-5.66,2.52-8.75.71-12.92-3.28-3.74-3.7-6.26-8.52-8.13-13.36-.42-1.21-1.24-2.38-1.25-3.58.07-1.15,1.42-1.98,2.16-2.9,1.91-2.04,2.48-4.85,1.64-7.45-1.3-4.07-3.83-6.39-8.16-6.39s-6.86,2.32-8.16,6.39c-.83,2.6-.26,5.41,1.64,7.45.73.92,2.08,1.75,2.16,2.9,0,1.21-.83,2.37-1.25,3.58-1.87,4.84-4.39,9.66-8.13,13.36-4.16,3.99-7.26,5.8-12.92,3.28-3.09-1.16-6.09-2.72-8.59-4.81-.9-.8-2.07-1.49-2.39-2.68-.21-1.06.22-2.15.28-3.23.2-2.68-1.66-5.33-4.09-6.34-5.96-2.66-11.75,5.08-7.62,10.1,1.31,1.9,4.1,2.19,4.98,4.43,1.5,5.53,2.57,11.3,4.15,16.79.48,1.73,1.08,3.45,1.51,5.2.72,2.3.8,4.86,3.16,6.18,2.47,1.06,4.4.19,6.92-.32,9.16-2.67,19.69-3.9,28.34-3.9s19.19,1.23,28.34,3.9c2.52.51,4.44,1.38,6.92.32,2.36-1.33,2.44-3.89,3.16-6.18.43-1.75,1.03-3.47,1.51-5.2,1.58-5.49,2.66-11.26,4.15-16.79.88-2.24,3.67-2.53,4.98-4.43,4.13-5.02-1.66-12.76-7.62-10.1h.02Z"/>
          <path class="st3" d="M190.59,65.92"/>
          <path d="M141.87,200.67c-5.09,3.98-11.6,4.5-17.37,2.1-9.23-4.44-9.26-17.07-8.01-25.89,1.97-11.44,8.72-21.75,17.42-29.21,9.26-7.48,17.22-16.23,11.76-28.71-2.25-5.95-6.8-10.81-9.93-16.28-5.17-8.37-5.3-20.05,2.01-27.2.13-.18.1-.35-.13-.39-5.4.68-11.98,1.94-17.2,3.98-10.4,3.52-18.37,11.29-25.31,19.5-10.45,12.82-12.81,29.69-19.66,44.36-10.44,20.78-28.91,41.92-16.28,65.81,2.38,4.77,4.09,10.75,1.27,15.66-4.58,4.77,2.2,4.7,5.29,5.02,2.46.17,5.47-1.94,7.87-1.11,2.41,2.23-3.84,6.13.43,7.15,2.53.81,4.92.83,7.47.49,2.47-.17,5.07-.57,7.37-1.68,1.22-.43,2.79-1.69,4.06-1.42,2.27,1.87-4.47,11.9-4.17,14.19l.02.04c.86,1.02,2.29.51,4.07.65,2.02,0,4.24.25,5.49-1.71,9.17-11.45,17.75-24.92,18.22-39.94.06-2.21,1.58-1.16,2.6-.14,9.04,7.88,22.84,1.04,30.78-5.4,2.06-1.91,3.94-2.4,5.62-2.4s3.56.49,5.62,2.4c7.94,6.44,21.75,13.28,30.78,5.4,1.02-1.02,2.54-2.07,2.6.14.47,15.02,9.05,28.49,18.22,39.94,1.25,1.96,3.46,1.71,5.49,1.71,1.78-.14,3.21.38,4.07-.65l.02-.04c.3-2.29-6.44-12.32-4.17-14.19,1.27-.26,2.84.99,4.06,1.42,2.29,1.11,4.9,1.5,7.37,1.68,2.55.34,4.93.32,7.47-.49,4.26-1.02-1.98-4.92.43-7.15,2.4-.82,5.41,1.28,7.87,1.11,3.09-.32,9.87-.25,5.29-5.02-2.82-4.91-1.11-10.9,1.27-15.66,12.63-23.89-5.84-45.03-16.28-65.81-6.85-14.67-9.22-31.54-19.66-44.36-6.94-8.2-14.91-15.98-25.31-19.5-5.22-2.04-11.81-3.3-17.2-3.98-.23.03-.26.21-.13.39,7.31,7.15,7.18,18.83,2.01,27.2-3.13,5.47-7.68,10.33-9.93,16.28-5.46,12.48,2.5,21.23,11.76,28.71,8.7,7.47,15.45,17.77,17.42,29.21,1.26,8.81,1.22,21.45-8.01,25.89-5.77,2.4-12.28,1.89-17.37-2.1-6.36-4.18-11.89-13.29-11.29-21.08.51-3.28,2.17-2.26,6.86-4.8,4.7-2.54,7.13-10.24,3.44-15.13-2.76-3.05-7.48-3.97-12.68-3.97s-9.92.91-12.68,3.97c-3.69,4.89-1.25,12.59,3.44,15.13,4.7,2.54,6.36,1.52,6.86,4.8.6,7.79-4.93,16.9-11.29,21.08h-.04Z"/>
          <path class="st1" d="M212.77,246.02c-9.17-11.45-17.75-24.92-18.22-39.94-.06-2.21-1.58-1.16-2.6-.14-9.04,7.88-22.84,1.04-30.78-5.4-2.06-1.91-3.94-2.4-5.62-2.4s-3.56.49-5.62,2.4c-7.94,6.44-21.75,13.28-30.78,5.4-1.02-1.02-2.54-2.07-2.6.14-.47,15.02-9.05,28.49-18.22,39.94-.78,1.23-1.95,1.59-3.21,1.69h120.86c-1.26-.1-2.43-.46-3.21-1.69Z"/>
          <path d="M150.31,176.53c-.1-.04-.19-.07-.28-.1.1.03.19.07.28.1Z"/>
          <path d="M160.78,176.53c.1-.04.19-.07.28-.1-.1.03-.19.07-.28.1Z"/>
          <path class="st0" d="M186.59,202.77c-5.77,2.4-12.28,1.89-17.37-2.1-6.36-4.18-11.89-13.29-11.29-21.08.28-1.81.91-2.31,2.22-2.82-1.35.45-2.97.68-4.6.68s-3.25-.23-4.6-.68c1.3.51,1.94,1.01,2.22,2.82.6,7.79-4.93,16.9-11.29,21.08-5.09,3.98-11.6,4.5-17.37,2.1-1.29-.41-6.69.77-5.36,3.18,9.04,7.88,22.84,1.04,30.78-5.4,2.06-1.91,3.94-2.4,5.62-2.4s3.56.49,5.62,2.4c7.94,6.44,21.75,13.28,30.78,5.4,1.33-2.4-4.07-3.59-5.36-3.18Z"/>
          <path class="st0" d="M198.74,175.82c-2.25-12.37-9.12-22.14-16.15-28.52s-16.93-9.02-27.04-9.02-20.01,2.64-27.04,9.02c-7.03,6.38-13.9,16.15-16.15,28.52-2.25,12.37-.39,21.86,6.79,30.12-1.33-2.4,4.07-3.59,5.36-3.18-9.23-4.44-9.26-17.07-8.01-25.89,1.97-11.44,8.72-21.75,17.42-29.21,6.86-4.7,15.95-5.22,21.63-5.22s14.77.52,21.63,5.22c8.7,7.47,15.45,17.77,17.42,29.21,1.26,8.81,1.22,21.45-8.01,25.89,1.29-.41,6.69.77,5.36,3.18,7.18-8.27,9.04-17.75,6.79-30.12h0Z"/>
          <path class="st1" d="M186.59,202.77c-5.77,2.4-12.28,1.89-17.37-2.1-6.36-4.18-11.89-13.29-11.29-21.08.28-1.81.91-2.31,2.22-2.82.2-.08.41-.16.64-.24.1-.04.19-.07.28-.1.96-.35,2.17-.79,3.73-1.64,4.7-2.54,7.13-10.24,3.44-15.13-2.76-3.05-7.48-3.97-12.68-3.97s-9.92.91-12.68,3.97c-3.69,4.89-1.25,12.59,3.44,15.13,1.55.84,2.77,1.29,3.73,1.64.09.03.18.06.28.1.23.08.44.16.64.24,1.3.51,1.94,1.01,2.22,2.82.6,7.79-4.93,16.9-11.29,21.08-5.09,3.98-11.6,4.5-17.37,2.1-9.23-4.44-9.26-17.07-8.01-25.89,1.97-11.44,8.72-21.75,17.42-29.21,6.86-4.7,15.95-5.22,21.63-5.22s14.77.52,21.63,5.22c8.7,7.47,15.45,17.77,17.42,29.21,1.26,8.81,1.22,21.45-8.01,25.89h-.02Z"/>
          <path d="M168.23,159.66c-2.76-3.05-7.48-3.97-12.68-3.97s-9.92.91-12.68,3.97c-3.69,4.89-1.25,12.59,3.44,15.13,1.55.84,2.77,1.29,3.73,1.64.09.03.18.06.28.1.23.08.44.16.64.24,1.35.45,2.97.68,4.6.68s3.25-.23,4.6-.68c.2-.08.41-.16.64-.24.1-.04.19-.07.28-.1.96-.35,2.17-.79,3.73-1.64,4.7-2.54,7.13-10.24,3.44-15.13h-.02Z"/>
          <circle class="st2" cx="123.16" cy="126.95" r="12.69"/>
          <path d="M134.29,120.85c-2.16-3.93-6.33-6.59-11.13-6.59s-8.97,2.66-11.13,6.59c-.26.96-.41,1.97-.41,3.02,0,6.37,5.17,11.54,11.54,11.54s11.54-5.17,11.54-11.54c0-1.05-.15-2.06-.41-3.02Z"/>
          <circle class="st2" cx="187.93" cy="126.95" r="12.69"/>
          <path d="M176.8,120.85c2.16-3.93,6.33-6.59,11.13-6.59s8.97,2.66,11.13,6.59c.26.96.41,1.97.41,3.02,0,6.37-5.17,11.54-11.54,11.54s-11.54-5.17-11.54-11.54c0-1.05.15-2.06.41-3.02h0Z"/>
          <path class="st1" d="M129.99,113.59c1.02.18,2.02.14,3.14-.44,2.8-1.46,4.01-3.85,2.46-6.74-1.44-2.67-3.95-4.83-6.8-5.86-3.64-1.32-6.38-1.67-7.41-1.76-.16-.01-.25.18-.13.29l1.01,1.01c.1.1.04.28-.11.29-1.22.06-5.07.33-6.63,1.21-.12.07-.11.24.01.3,1.14.51,3.44,1.1,4.46,1.89.12.09.06.28-.09.3-4.6.5-7.66,2.9-8.66,3.8-.12.11-.03.31.13.29,3.05-.31,6.21-.41,7.82-.43.19,0,.24.26.06.33-2.71,1-4.29,2.44-4.94,3.14-.11.12,0,.31.16.28,2.83-.63,5.91-.14,8.71.42,1.36.27,2.72.58,4.06.95.98.27,1.88.59,2.77.75l-.02-.02Z"/>
          <path class="st1" d="M181.11,113.59c-1.02.18-2.02.14-3.14-.44-2.8-1.46-4.01-3.85-2.46-6.74,1.44-2.67,3.95-4.83,6.8-5.86,3.64-1.32,6.38-1.67,7.41-1.76.16-.01.25.18.13.29l-1.01,1.01c-.1.1-.04.28.11.29,1.22.06,5.07.33,6.63,1.21.12.07.11.24,0,.3-1.14.51-3.44,1.1-4.46,1.89-.12.09-.06.28.09.3,4.6.5,7.66,2.9,8.66,3.8.12.11.03.31-.13.29-3.05-.31-6.21-.41-7.82-.43-.19,0-.24.26-.06.33,2.71,1,4.29,2.44,4.94,3.14.11.12,0,.31-.16.28-2.83-.63-5.91-.14-8.71.42-1.36.27-2.72.58-4.06.95-.98.27-1.88.59-2.77.75l.02-.02Z"/>
        </g>
        <path class="st1" d="M124.5,202.77c-9.23-4.44-9.26-17.07-8.01-25.89.37-2.17.92-4.3,1.62-6.37h0c-3.95,7.52-15.49,3.38-16.76-.59,1.46,13.15,4.2,25.56,23.15,32.85h0Z"/>
        <path class="st1" d="M186.59,202.77c9.23-4.44,9.26-17.07,8.01-25.89-.37-2.17-.92-4.3-1.62-6.37h0c3.95,7.52,15.49,3.38,16.76-.59-1.46,13.15-4.2,25.56-23.15,32.85h0Z"/>
      </g>
    </g>
  </g>
</svg>